<svg xmlns="http://www.w3.org/2000/svg" fill="currentColor" viewBox="0 0 294.5 134.3" width="150" height="56" class="mw-100"><path d="M11 100h9.4c2.1 0 3.7-1.6 3.7-3.7V47.1c0-3.6 4.6-5.1 6.8-2.3l39.3 53.6a4 4 0 0 0 3 1.5h11.3c2.1 0 3.7-1.6 3.7-3.7V11c0-2.1-1.6-3.7-3.7-3.7H75a3.6 3.6 0 0 0-3.7 3.7v49.1c0 3.6-4.6 5.1-6.8 2.3L25.2 8.8a4 4 0 0 0-3-1.5H11A3.6 3.6 0 0 0 7.3 11v85.2c0 2 1.6 3.8 3.7 3.8m96.9-6.2q5.8 4.9 13.3 6.2c2.3.4 4.3-1.4 4.3-3.7v-9.6c0-1.6-1.1-3.2-2.8-3.6a10 10 0 0 1-7.6-10V44.9c0-2.1 1.6-3.7 3.7-3.7h13.1c2.1 0 3.7-1.6 3.7-3.7v-9.4c0-2.1-1.6-3.7-3.7-3.7h-13.1a3.6 3.6 0 0 1-3.7-3.7V11c0-2.1-1.6-3.7-3.7-3.7H102a3.6 3.6 0 0 0-3.7 3.6v61.8c.1 8.3 3.6 15.9 9.6 21.1m92.4 6.2h12.3c1.2 0 2.3-1 2.3-2.3V61.6c0-10.3 7.5-18.7 17.4-20.3a4 4 0 0 0 3.2-3.7v-9.5c0-2.3-2-4-4.1-3.7a37 37 0 0 0-10.4 2.7l-2.7 1.2c-1.5.8-3.3-.3-3.3-2 0-1.2-1-2.3-2.3-2.3h-12.3c-1.2 0-2.3 1-2.3 2.3v71.2q.3 2.4 2.2 2.5"/><path d="M167.3 51.6h-14.2a24.2 24.2 0 0 0 0 48.4H184c2.1 0 3.7-1.6 3.7-3.7V44.8c0-11.3-9.1-20.5-20.5-20.5h-17.6a3.6 3.6 0 0 0-3.7 3.7v9.4c0 2.1 1.6 3.7 3.7 3.7h17.6c2.1 0 3.7 1.6 3.7 3.7v3.1c.1 2-1.5 3.7-3.6 3.7m3.7 27.8c0 2.1-1.6 3.7-3.7 3.7h-13.8c-4 0-7.4-3.2-7.5-7.2a7.4 7.4 0 0 1 7.4-7.5h14c2.1 0 3.7 1.6 3.7 3.7zm96.2-55.1h-17.6a3.6 3.6 0 0 0-3.7 3.7v9.4c0 2.1 1.6 3.7 3.7 3.7h17.6c2.1 0 3.7 1.6 3.7 3.7v3.1c0 2.1-1.6 3.7-3.7 3.7H253a24.2 24.2 0 0 0 0 48.4h30.9c2.1 0 3.7-1.6 3.7-3.7V44.8c0-11.3-9.1-20.5-20.4-20.5m3.7 55.1c0 2.1-1.6 3.7-3.7 3.7h-13.8c-4 0-7.4-3.2-7.5-7.2a7.4 7.4 0 0 1 7.4-7.5h14c2.1 0 3.7 1.6 3.7 3.7zm13 30.9H11a3.6 3.6 0 0 0-3.7 3.7v9.1c0 2.1 1.6 3.7 3.7 3.7h272.8c2.1 0 3.7-1.6 3.7-3.7V114a3.5 3.5 0 0 0-3.6-3.7"/></svg>
