<svg xmlns="http://www.w3.org/2000/svg" xml:space="preserve" id="Layer_1" x="0" y="0" viewBox="0 0 550 550" fill="currentColor" width="234" height="234" class="mw-100"><style>.st1{fill:#fff}</style><path d="M275 537c-70 0-135-27-185-77a260 260 0 0 1 0-370 260 260 0 0 1 370 0 262 262 0 0 1-185 447"/><path d="M275 19a256 256 0 1 1 0 512 256 256 0 0 1 0-512m0-12A265 265 0 0 0 28 171a263 263 0 0 0 0 208A268 268 0 1 0 275 7" class="st1"/><circle cx="275" cy="275" r="218.8" class="st1" transform="rotate(0 275 275)"/><path d="M357 142h-21q-7 0-8 8v110c0 8-10 11-15 4l-88-119q-3-4-7-4h-25q-8 1-8 8v191q1 8 8 8h21q8 0 9-8V230c0-7 10-11 14-4l88 120q3 3 7 3h25q8-1 8-8V150q1-8-8-8M357 372H193q-8 1-8 8v21q1 7 8 8h164q8-1 9-8v-21q-1-8-9-8"/></svg>
